#Comment line ignore any data following # character 
#Hierarchical Translation and Rotation (.htr) file 
[Header]	
#Header keywords are followed by a single value 
FileType HTR		#Single word string
DataType HTRS		#Translation followed by rotation and scale data
FileVersion 1		#integer
NumSegments 84		#integer
NumFrames 2		#integer
DataFrameRate 30		#integer, data frame rate in this file
EulerRotationOrder ZYX
CalibrationUnits mm
RotationUnits Degrees
GlobalAxisofGravity Y
BoneLengthAxis Y
ScaleFactor 1.00
[SegmentNames&Hierarchy]
#CHILD	PARENT
MASTER GLOBAL
root MASTER
chest root
L_mid_tent01 root
R_mid_tent01 root
spine01 root
Bip01_Neck chest
L_humerus chest
R_humerus chest
weapon_bone chest
Bip01_Head Bip01_Neck
eye_left_bone Bip01_Head
eye_right_bone Bip01_Head
L_forearm L_humerus
L_front_hand L_forearm
L_weapon_bone L_forearm
L_front_hand01_01 L_front_hand
L_front_hand02_01 L_front_hand
L_front_hand03_01 L_front_hand
L_front_hand01_02 L_front_hand01_01
L_front_hand02_02 L_front_hand02_01
L_front_hand03_02 L_front_hand03_01
R_forearm R_humerus
R_front_hand R_forearm
R_weapon_bone R_forearm
R_front_hand01_01 R_front_hand
R_front_hand02_01 R_front_hand
R_front_hand03_01 R_front_hand
R_front_hand01_02 R_front_hand01_01
R_front_hand02_02 R_front_hand02_01
R_front_hand03_02 R_front_hand03_01
null_rope01_connect L_mid_tent01
Rope1_Seg01 null_rope01_connect
Rope1_Seg02 Rope1_Seg01
Rope1_Seg03 Rope1_Seg02
Rope1_Seg04 Rope1_Seg03
Rope1_Seg05 Rope1_Seg04
Rope1_Seg06 Rope1_Seg05
Rope1_Seg07 Rope1_Seg06
Rope1_Seg09 Rope1_Seg07
L_mid_hand01 Rope1_Seg09
L_mid_hand02 Rope1_Seg09
L_mid_hand03 Rope1_Seg09
null_rope02_connect R_mid_tent01
Rope2_Seg01 null_rope02_connect
Rope2_Seg02 Rope2_Seg01
Rope2_Seg03 Rope2_Seg02
Rope2_Seg04 Rope2_Seg03
Rope2_Seg05 Rope2_Seg04
Rope2_Seg06 Rope2_Seg05
Rope2_Seg07 Rope2_Seg06
Rope2_Seg09 Rope2_Seg07
R_mid_hand01 Rope2_Seg09
R_mid_hand02 Rope2_Seg09
R_mid_hand03 Rope2_Seg09
spine02 spine01
spine03 spine02
pelvis spine03
null_rope03_connect pelvis
null_rope04_connect pelvis
Rope3_Seg01 null_rope03_connect
Rope3_Seg02 Rope3_Seg01
Rope3_Seg03 Rope3_Seg02
Rope3_Seg04 Rope3_Seg03
Rope3_Seg05 Rope3_Seg04
Rope3_Seg06 Rope3_Seg05
Rope3_Seg07 Rope3_Seg06
Rope3_Seg08 Rope3_Seg07
Rope3_Seg09 Rope3_Seg08
R_rear_hand01 Rope3_Seg09
R_rear_hand02 Rope3_Seg09
R_rear_hand03 Rope3_Seg09
Rope4_Seg01 null_rope04_connect
Rope4_Seg02 Rope4_Seg01
Rope4_Seg03 Rope4_Seg02
Rope4_Seg04 Rope4_Seg03
Rope4_Seg05 Rope4_Seg04
Rope4_Seg06 Rope4_Seg05
Rope4_Seg07 Rope4_Seg06
Rope4_Seg08 Rope4_Seg07
Rope4_Seg09 Rope4_Seg08
L_rear_hand01 Rope4_Seg09
L_rear_hand02 Rope4_Seg09
L_rear_hand03 Rope4_Seg09
[BasePosition]
#SegmentName Tx, Ty, Tz, Rx, Ry, Rz, BoneLength
MASTER 0.000000 0.000000 0.000000 -90.000000 0.000000 0.000000 10.000000 
root 0.000000 0.000000 0.000000 0.000000 0.000000 0.000000 10.000000 
chest 0.000000 0.000000 0.000000 0.000000 0.000000 0.000000 10.000000 
L_mid_tent01 0.000000 0.000000 0.000000 0.000000 0.000000 0.000000 10.000000 
R_mid_tent01 0.000000 0.000000 0.000000 0.000000 0.000000 0.000000 10.000000 
spine01 0.000000 0.000000 0.000000 0.000000 0.000000 0.000000 10.000000 
Bip01_Neck 0.000000 0.000000 0.000000 0.000000 0.000000 0.000000 10.000000 
L_humerus 0.000000 0.000000 0.000000 0.000000 0.000000 0.000000 10.000000 
R_humerus 0.000000 0.000000 0.000000 0.000000 0.000000 0.000000 10.000000 
weapon_bone 0.000000 0.000000 0.000000 0.000000 0.000000 0.000000 10.000000 
Bip01_Head 0.000000 0.000000 0.000000 0.000000 0.000000 0.000000 10.000000 
eye_left_bone 0.000000 0.000000 0.000000 0.000000 0.000000 0.000000 10.000000 
eye_right_bone 0.000000 0.000000 0.000000 0.000000 0.000000 0.000000 10.000000 
L_forearm 0.000000 0.000000 0.000000 0.000000 0.000000 0.000000 10.000000 
L_front_hand 0.000000 0.000000 0.000000 0.000000 0.000000 0.000000 10.000000 
L_weapon_bone 0.000000 0.000000 0.000000 0.000000 0.000000 0.000000 10.000000 
L_front_hand01_01 0.000000 0.000000 0.000000 0.000000 0.000000 0.000000 10.000000 
L_front_hand02_01 0.000000 0.000000 0.000000 0.000000 0.000000 0.000000 10.000000 
L_front_hand03_01 0.000000 0.000000 0.000000 0.000000 0.000000 0.000000 10.000000 
L_front_hand01_02 0.000000 0.000000 0.000000 0.000000 0.000000 0.000000 10.000000 
L_front_hand02_02 0.000000 0.000000 0.000000 0.000000 0.000000 0.000000 10.000000 
L_front_hand03_02 0.000000 0.000000 0.000000 0.000000 0.000000 0.000000 10.000000 
R_forearm 0.000000 0.000000 0.000000 0.000000 0.000000 0.000000 10.000000 
R_front_hand 0.000000 0.000000 0.000000 0.000000 0.000000 0.000000 10.000000 
R_weapon_bone 0.000000 0.000000 0.000000 0.000000 0.000000 0.000000 10.000000 
R_front_hand01_01 0.000000 0.000000 0.000000 0.000000 0.000000 0.000000 10.000000 
R_front_hand02_01 0.000000 0.000000 0.000000 0.000000 0.000000 0.000000 10.000000 
R_front_hand03_01 0.000000 0.000000 0.000000 0.000000 0.000000 0.000000 10.000000 
R_front_hand01_02 0.000000 0.000000 0.000000 0.000000 0.000000 0.000000 10.000000 
R_front_hand02_02 0.000000 0.000000 0.000000 0.000000 0.000000 0.000000 10.000000 
R_front_hand03_02 0.000000 0.000000 0.000000 0.000000 0.000000 0.000000 10.000000 
null_rope01_connect 0.000000 0.000000 0.000000 0.000000 0.000000 0.000000 10.000000 
Rope1_Seg01 0.000000 0.000000 0.000000 0.000000 0.000000 0.000000 10.000000 
Rope1_Seg02 0.000000 0.000000 0.000000 0.000000 0.000000 0.000000 10.000000 
Rope1_Seg03 0.000000 0.000000 0.000000 0.000000 0.000000 0.000000 10.000000 
Rope1_Seg04 0.000000 0.000000 0.000000 0.000000 0.000000 0.000000 10.000000 
Rope1_Seg05 0.000000 0.000000 0.000000 0.000000 0.000000 0.000000 10.000000 
Rope1_Seg06 0.000000 0.000000 0.000000 0.000000 0.000000 0.000000 10.000000 
Rope1_Seg07 0.000000 0.000000 0.000000 0.000000 0.000000 0.000000 10.000000 
Rope1_Seg09 0.000000 0.000000 0.000000 0.000000 0.000000 0.000000 10.000000 
L_mid_hand01 0.000000 0.000000 0.000000 0.000000 0.000000 0.000000 10.000000 
L_mid_hand02 0.000000 0.000000 0.000000 0.000000 0.000000 0.000000 10.000000 
L_mid_hand03 0.000000 0.000000 0.000000 0.000000 0.000000 0.000000 10.000000 
null_rope02_connect 0.000000 0.000000 0.000000 0.000000 0.000000 0.000000 10.000000 
Rope2_Seg01 0.000000 0.000000 0.000000 0.000000 0.000000 0.000000 10.000000 
Rope2_Seg02 0.000000 0.000000 0.000000 0.000000 0.000000 0.000000 10.000000 
Rope2_Seg03 0.000000 0.000000 0.000000 0.000000 0.000000 0.000000 10.000000 
Rope2_Seg04 0.000000 0.000000 0.000000 0.000000 0.000000 0.000000 10.000000 
Rope2_Seg05 0.000000 0.000000 0.000000 0.000000 0.000000 0.000000 10.000000 
Rope2_Seg06 0.000000 0.000000 0.000000 0.000000 0.000000 0.000000 10.000000 
Rope2_Seg07 0.000000 0.000000 0.000000 0.000000 0.000000 0.000000 10.000000 
Rope2_Seg09 0.000000 0.000000 0.000000 0.000000 0.000000 0.000000 10.000000 
R_mid_hand01 0.000000 0.000000 0.000000 0.000000 0.000000 0.000000 10.000000 
R_mid_hand02 0.000000 0.000000 0.000000 0.000000 0.000000 0.000000 10.000000 
R_mid_hand03 0.000000 0.000000 0.000000 0.000000 0.000000 0.000000 10.000000 
spine02 0.000000 0.000000 0.000000 0.000000 0.000000 0.000000 10.000000 
spine03 0.000000 0.000000 0.000000 0.000000 0.000000 0.000000 10.000000 
pelvis 0.000000 0.000000 0.000000 0.000000 0.000000 0.000000 10.000000 
null_rope03_connect 0.000000 0.000000 0.000000 0.000000 0.000000 0.000000 10.000000 
null_rope04_connect 0.000000 0.000000 0.000000 0.000000 0.000000 0.000000 10.000000 
Rope3_Seg01 0.000000 0.000000 0.000000 0.000000 0.000000 0.000000 10.000000 
Rope3_Seg02 0.000000 0.000000 0.000000 0.000000 0.000000 0.000000 10.000000 
Rope3_Seg03 0.000000 0.000000 0.000000 0.000000 0.000000 0.000000 10.000000 
Rope3_Seg04 0.000000 0.000000 0.000000 0.000000 0.000000 0.000000 10.000000 
Rope3_Seg05 0.000000 0.000000 0.000000 0.000000 0.000000 0.000000 10.000000 
Rope3_Seg06 0.000000 0.000000 0.000000 0.000000 0.000000 0.000000 10.000000 
Rope3_Seg07 0.000000 0.000000 0.000000 0.000000 0.000000 0.000000 10.000000 
Rope3_Seg08 0.000000 0.000000 0.000000 0.000000 0.000000 0.000000 10.000000 
Rope3_Seg09 0.000000 0.000000 0.000000 0.000000 0.000000 0.000000 10.000000 
R_rear_hand01 0.000000 0.000000 0.000000 0.000000 0.000000 0.000000 10.000000 
R_rear_hand02 0.000000 0.000000 0.000000 0.000000 0.000000 0.000000 10.000000 
R_rear_hand03 0.000000 0.000000 0.000000 0.000000 0.000000 0.000000 10.000000 
Rope4_Seg01 0.000000 0.000000 0.000000 0.000000 0.000000 0.000000 10.000000 
Rope4_Seg02 0.000000 0.000000 0.000000 0.000000 0.000000 0.000000 10.000000 
Rope4_Seg03 0.000000 0.000000 0.000000 0.000000 0.000000 0.000000 10.000000 
Rope4_Seg04 0.000000 0.000000 0.000000 0.000000 0.000000 0.000000 10.000000 
Rope4_Seg05 0.000000 0.000000 0.000000 0.000000 0.000000 0.000000 10.000000 
Rope4_Seg06 0.000000 0.000000 0.000000 0.000000 0.000000 0.000000 10.000000 
Rope4_Seg07 0.000000 0.000000 0.000000 0.000000 0.000000 0.000000 10.000000 
Rope4_Seg08 0.000000 0.000000 0.000000 0.000000 0.000000 0.000000 10.000000 
Rope4_Seg09 0.000000 0.000000 0.000000 0.000000 0.000000 0.000000 10.000000 
L_rear_hand01 0.000000 0.000000 0.000000 0.000000 0.000000 0.000000 10.000000 
L_rear_hand02 0.000000 0.000000 0.000000 0.000000 0.000000 0.000000 10.000000 
L_rear_hand03 0.000000 0.000000 0.000000 0.000000 0.000000 0.000000 10.000000 
#Beginning of Data. Separated by tabs
#Fr	Tx	Ty	Tz	Rx	Ry	Rz	SF
[MASTER]
16 0.000000 0.000000 0.000000 0.001660 0.001660 0.001660 0.000000
17 0.000000 0.000000 0.000000 0.001660 0.001660 0.001660 0.000000
[root]
16 12.070373 -79.719536 1434.851807 -108.417542 21.610397 -89.915771 1437.115356
17 19.379580 -79.415680 1433.961182 -108.498611 21.453426 -89.859375 1436.289307
[chest]
16 -86.836617 -33.005978 -30.127247 4.300110 -9.216620 -178.834015 97.660858
17 -86.836617 -33.005978 -30.127247 4.842329 -9.215763 -178.907257 97.660858
[L_mid_tent01]
16 27.299519 22.177580 -249.918289 -9.117356 17.466944 67.453033 252.381180
17 27.299517 22.177580 -249.918289 -9.099747 18.248217 67.432205 252.381180
[R_mid_tent01]
16 23.228794 24.509907 226.238495 -176.059158 -15.625846 65.652382 228.744751
17 23.228794 24.509907 226.238495 -176.050491 -16.007486 65.625198 228.744751
[spine01]
16 -0.361383 -0.195265 0.000000 -0.000001 -0.000007 22.052340 0.410763
17 -0.361383 -0.195265 0.000000 -0.000001 -0.000007 22.052340 0.410763
[Bip01_Neck]
16 165.484543 71.581718 0.000119 175.896118 1.177290 24.871183 180.302734
17 165.484543 71.581718 0.000119 175.896118 1.177290 24.871183 180.302734
[L_humerus]
16 -13.983130 -135.272980 -120.471481 -168.517593 36.033752 -113.483025 181.680161
17 -13.983130 -135.272980 -120.471481 -168.517593 36.033756 -113.483017 181.680161
[R_humerus]
16 -13.983309 -135.273102 125.287651 -179.579803 -31.741405 -122.055481 184.909012
17 -13.983309 -135.273102 125.287651 -179.573685 -32.202110 -122.062309 184.909012
[weapon_bone]
16 235.964890 -300.705902 0.000000 0.000000 -89.951546 -128.212341 382.234833
17 235.964890 -300.705902 0.000000 0.000000 -89.951546 -128.212341 382.234833
[Bip01_Head]
16 189.519928 179.130249 22.124882 -23.103304 5.725939 14.490991 261.715424
17 189.519913 179.130249 22.124884 -23.365730 5.760481 14.579771 261.715393
[eye_left_bone]
16 -24.626970 125.451866 -64.772606 0.000000 -90.000000 -99.840431 143.318359
17 -24.626970 125.451866 -64.772606 0.000000 -90.000000 -99.840431 143.318359
[eye_right_bone]
16 -24.626970 125.451866 64.327362 0.000000 -89.980217 80.156387 143.117676
17 -24.626970 125.451866 64.327362 0.000000 -89.965736 80.156380 143.117676
[L_forearm]
16 322.776093 0.000000 -0.000119 0.000017 0.002347 -89.149834 322.776093
17 322.776093 0.000000 -0.000119 0.000017 0.002347 -89.149834 322.776093
[L_front_hand]
16 241.149185 -0.042021 -3.300071 13.921437 -2.242733 -0.023006 241.171753
17 241.149185 -0.042021 -3.300071 59.484406 -2.242247 -0.020333 241.171753
[L_weapon_bone]
16 156.183838 0.000000 0.000000 0.000014 0.000007 0.000001 156.183838
17 156.183838 0.000000 0.000000 0.000014 0.000007 0.000001 156.183838
[L_front_hand01_01]
16 86.095154 20.947098 -0.655860 -0.366594 -0.477154 75.385574 88.609184
17 86.095154 20.947098 -0.655860 -0.366594 -0.477154 75.385574 88.609184
[L_front_hand02_01]
16 86.935165 -11.437475 24.513514 154.399796 -59.883835 -61.369587 91.046425
17 86.935165 -11.437475 24.513514 154.399796 -59.883835 -61.369587 91.046425
[L_front_hand03_01]
16 86.637497 -14.123976 -20.424902 -153.913849 58.118130 -62.702866 90.126129
17 86.637497 -14.123976 -20.424902 -153.913849 58.118122 -62.702866 90.126129
[L_front_hand01_02]
16 71.020905 -0.000179 0.000030 0.000334 -0.002323 -106.379684 71.020905
17 71.020905 -0.000179 0.000030 0.000334 -0.002323 -106.379684 71.020905
[L_front_hand02_02]
16 71.020927 -0.000119 0.000060 0.000334 -0.002323 -106.379684 71.020927
17 71.020927 -0.000119 0.000060 0.000334 -0.002323 -106.379684 71.020927
[L_front_hand03_02]
16 71.020905 -0.000060 0.000060 0.000334 -0.002323 -106.379684 71.020905
17 71.020905 -0.000060 0.000060 0.000334 -0.002323 -106.379684 71.020905
[R_forearm]
16 322.776428 -0.000060 0.000030 0.213197 0.007525 -93.425262 322.776428
17 322.776428 -0.000060 0.000030 0.213197 0.007525 -93.425247 322.776428
[R_front_hand]
16 238.847015 -0.006795 2.210259 -0.270529 1.703932 2.322530 238.857239
17 238.847015 -0.006795 2.210259 -0.270529 1.703932 2.322530 238.857239
[R_weapon_bone]
16 155.664093 0.002503 -0.000030 0.003487 0.001180 -90.988930 155.664078
17 155.664093 0.002503 -0.000030 0.003487 0.001180 -90.988930 155.664078
[R_front_hand01_01]
16 87.624611 14.231146 22.918642 -154.633499 -59.950619 61.746044 91.683487
17 87.624611 14.231146 22.918642 -154.633499 -59.950619 61.746044 91.683487
[R_front_hand02_01]
16 89.356956 14.367283 -19.491137 154.602661 58.302849 63.744389 92.579636
17 89.356956 14.367283 -19.491137 154.602661 58.302849 63.744389 92.579636
[R_front_hand03_01]
16 87.286232 -22.307278 -0.143439 0.162155 -0.423168 -75.767906 90.091743
17 87.286232 -22.307278 -0.143439 0.162155 -0.423168 -75.767921 90.091743
[R_front_hand01_02]
16 71.020905 0.000060 0.000119 0.002323 -0.000334 106.381714 71.020905
17 71.020905 0.000060 0.000119 0.002323 -0.000334 106.381714 71.020905
[R_front_hand02_02]
16 71.020844 -0.000030 -0.000119 0.002323 -0.000334 106.381714 71.020836
17 71.020844 -0.000030 -0.000119 0.002323 -0.000334 106.381714 71.020836
[R_front_hand03_02]
16 71.020905 0.000000 0.000030 0.002323 -0.000334 106.381714 71.020905
17 71.020905 0.000000 0.000030 0.002323 -0.000334 106.381714 71.020905
[null_rope01_connect]
16 328.732483 0.000000 -0.000238 155.244781 -51.961689 -156.005585 328.732483
17 328.732483 0.000000 -0.000238 155.881042 -51.161407 -156.454575 328.732483
[Rope1_Seg01]
16 0.000000 0.000000 0.000000 141.595474 62.089180 167.619614 0.000000
17 0.000000 0.000000 0.000000 139.106522 65.132408 163.037247 0.000000
[Rope1_Seg02]
16 139.999863 -0.000179 0.000000 4.056612 0.770942 -9.776857 139.999863
17 139.999863 -0.000179 0.000000 3.372168 1.247038 -9.562314 139.999863
[Rope1_Seg03]
16 139.999924 0.000060 -0.000060 8.673596 0.003111 -13.325571 139.999924
17 139.999924 0.000060 -0.000060 7.377122 0.847570 -13.141166 139.999924
[Rope1_Seg04]
16 139.999924 -0.000060 -0.000119 25.718208 -4.862110 -20.922340 139.999924
17 139.999924 -0.000060 -0.000119 23.544775 -2.678884 -21.153360 139.999924
[Rope1_Seg05]
16 139.999832 0.000119 -0.000060 12.016121 -2.362174 -8.226818 139.999832
17 139.999832 0.000119 -0.000060 12.784684 -2.169021 -8.586049 139.999832
[Rope1_Seg06]
16 139.999954 0.000119 -0.000060 -9.702339 6.662656 0.131620 139.999954
17 139.999954 0.000119 -0.000060 -9.368360 5.527532 1.217715 139.999954
[Rope1_Seg07]
16 139.999985 0.000060 0.000000 -2.009692 1.952301 -0.754874 139.999985
17 139.999985 0.000060 0.000000 -1.627026 1.503491 -0.479729 139.999985
[Rope1_Seg09]
16 121.602913 0.000119 -0.000089 -89.793175 -1.359789 0.847147 121.602913
17 121.602913 0.000119 -0.000089 -89.793175 -1.359789 0.847147 121.602913
[L_mid_hand01]
16 103.859421 1.038730 8.195221 106.855484 -31.239275 -9.461397 104.187431
17 103.859421 1.038730 8.195221 106.855484 -31.239275 -9.461397 104.187431
[L_mid_hand02]
16 105.572853 -4.139662 -10.864139 -142.331345 25.752670 -28.774628 106.211075
17 105.572853 -4.139662 -10.864139 -142.331345 25.752670 -28.774628 106.211075
[L_mid_hand03]
16 104.641464 17.579376 -3.913581 -16.122810 9.734291 34.223598 106.179977
17 104.641464 17.579376 -3.913581 -16.122810 9.734291 34.223598 106.179977
[null_rope02_connect]
16 328.732849 0.000179 -0.000119 -69.408157 86.165390 108.839676 328.732849
17 328.732849 0.000179 -0.000119 -74.151436 86.174026 103.952820 328.732849
[Rope2_Seg01]
16 0.000076 0.000110 0.000153 56.407593 78.074844 171.207214 0.000203
17 0.000076 0.000110 0.000153 56.301533 78.546852 171.052750 0.000203
[Rope2_Seg02]
16 139.999741 -0.000060 -0.000119 -1.986699 13.589034 5.321387 139.999756
17 139.999741 -0.000060 -0.000119 -2.101358 13.720158 5.565536 139.999756
[Rope2_Seg03]
16 140.000107 0.000030 0.000000 -6.475711 19.122528 8.928649 140.000107
17 140.000107 0.000030 0.000000 -6.677053 19.085203 9.285646 140.000107
[Rope2_Seg04]
16 139.999802 0.000000 -0.000060 -10.387672 15.289674 9.630723 139.999802
17 139.999802 0.000000 -0.000060 -10.532160 15.140538 9.949121 139.999802
[Rope2_Seg05]
16 139.999985 -0.000060 0.000119 0.506749 0.361536 -0.852366 139.999985
17 139.999985 -0.000060 0.000119 0.434683 0.529100 -0.837122 139.999985
[Rope2_Seg06]
16 139.999893 -0.000030 -0.000119 -0.152362 0.587545 -0.137602 139.999893
17 139.999893 -0.000030 -0.000119 -0.073684 0.575216 -0.231158 139.999893
[Rope2_Seg07]
16 139.999893 0.000060 -0.000060 -0.776044 0.914889 0.470278 139.999893
17 139.999893 0.000060 -0.000060 -0.772773 0.931284 0.458653 139.999893
[Rope2_Seg09]
16 121.338966 0.000089 -0.000060 33.793236 -1.359788 -0.847141 121.338966
17 121.338966 0.000089 -0.000060 33.793236 -1.359788 -0.847141 121.338966
[R_mid_hand01]
16 104.680779 11.144459 -10.335981 -41.523792 25.424656 28.595957 105.778534
17 104.680779 11.144459 -10.335981 -41.523792 25.424656 28.595957 105.778534
[R_mid_hand02]
16 104.070427 2.443552 8.231699 72.847389 -32.746803 10.013901 104.424065
17 104.070427 2.443552 8.231699 72.847389 -32.746803 10.013901 104.424065
[R_mid_hand03]
16 106.028137 -11.221827 -5.996406 -167.901306 10.259192 -37.009720 106.788818
17 106.028137 -11.221827 -5.996406 -167.901306 10.259192 -37.009720 106.788818
[spine02]
16 129.756927 0.001550 0.000119 -0.245322 -4.052060 -4.355547 129.756927
17 129.756927 0.001550 0.000119 -0.245322 -4.052060 -4.355547 129.756927
[spine03]
16 78.613846 0.087372 -4.898873 0.207412 -2.089716 -0.432471 78.766380
17 78.613846 0.087372 -4.898873 0.207412 -2.089717 -0.432471 78.766380
[pelvis]
16 169.435242 0.051022 0.000000 -0.010007 -0.191417 -1.897554 169.435257
17 169.435242 0.051022 0.000000 -0.010007 -0.191417 -1.897554 169.435257
[null_rope03_connect]
16 -1.257226 -2.466202 137.391083 137.789917 -72.345161 -85.737839 137.418976
17 -1.257226 -2.466202 137.391083 137.907242 -72.237213 -85.701180 137.418976
[null_rope04_connect]
16 -1.259640 -2.480268 -137.844437 137.789917 -72.345161 -85.737839 137.872513
17 -1.259640 -2.480268 -137.844437 137.907242 -72.237213 -85.701180 137.872513
[Rope3_Seg01]
16 0.000000 0.000000 0.000000 174.073425 65.414978 -125.193871 0.000000
17 0.000000 0.000000 0.000000 176.865295 65.172638 -122.710945 0.000000
[Rope3_Seg02]
16 139.999924 -0.000119 0.000060 8.823392 12.834621 -5.241408 139.999924
17 139.999924 -0.000119 0.000060 8.378990 12.467099 -5.509760 139.999924
[Rope3_Seg03]
16 139.999924 -0.000119 0.000119 14.568599 20.097328 -5.961330 139.999924
17 139.999924 -0.000119 0.000119 13.894182 19.975573 -6.069964 139.999924
[Rope3_Seg04]
16 139.999924 0.000119 0.000000 3.186997 0.253660 -8.330416 139.999924
17 139.999924 0.000119 0.000000 2.136137 -1.386693 -7.970343 139.999924
[Rope3_Seg05]
16 139.999924 -0.000238 0.000060 -6.971756 -26.387758 -3.401365 139.999924
17 139.999924 -0.000238 0.000060 -6.517096 -26.783611 -3.293840 139.999924
[Rope3_Seg06]
16 139.999893 -0.000119 -0.000060 -0.195845 -11.535575 -4.050536 139.999893
17 139.999893 -0.000119 -0.000060 -0.031431 -11.096024 -3.752489 139.999893
[Rope3_Seg07]
16 139.999771 0.000060 -0.000119 0.642676 -6.477867 -2.571196 139.999771
17 139.999771 0.000060 -0.000119 0.690402 -6.299571 -2.342237 139.999771
[Rope3_Seg08]
16 139.999985 -0.000060 0.000000 0.751069 -3.727269 -1.434763 139.999985
17 139.999985 -0.000060 0.000000 0.785570 -3.640217 -1.309888 139.999985
[Rope3_Seg09]
16 90.185997 -0.000179 -0.000060 89.793228 -1.359877 -0.847183 90.185997
17 90.185997 -0.000179 -0.000060 89.793228 -1.359877 -0.847183 90.185997
[R_rear_hand01]
16 103.366196 -6.073594 -10.757982 -161.551193 16.666374 -30.088671 104.101845
17 103.366196 -6.073594 -10.757982 -161.551193 16.666374 -30.088671 104.101845
[R_rear_hand02]
16 100.509819 12.039542 -7.992327 -34.280552 19.289745 28.875523 101.543350
17 100.509819 12.039542 -7.992327 -34.280552 19.289745 28.875523 101.543350
[R_rear_hand03]
16 101.539970 5.215704 5.435467 83.366440 -30.933914 7.284830 101.819031
17 101.539970 5.215704 5.435467 83.366440 -30.933914 7.284830 101.819031
[Rope4_Seg01]
16 0.000010 0.000038 -0.000114 -1.980236 73.583733 -165.970535 0.000121
17 0.000010 0.000038 -0.000114 -0.827111 73.854683 -164.765808 0.000121
[Rope4_Seg02]
16 139.999985 0.000060 0.000119 -0.577722 -4.646887 9.241698 139.999985
17 139.999985 0.000060 0.000119 -0.633302 -4.468873 9.128219 139.999985
[Rope4_Seg03]
16 139.999924 0.000000 -0.000238 -0.885681 -6.254488 11.824738 139.999924
17 139.999924 0.000000 -0.000238 -0.975437 -6.011737 11.647074 139.999924
[Rope4_Seg04]
16 139.999985 0.000000 0.000119 -1.031704 -7.407107 13.435983 139.999985
17 139.999985 0.000000 0.000119 -1.146195 -7.065206 13.123281 139.999985
[Rope4_Seg05]
16 139.999802 -0.000060 -0.000119 0.102725 1.959886 0.413973 139.999802
17 139.999802 -0.000060 -0.000119 0.106793 1.834589 0.387537 139.999802
[Rope4_Seg06]
16 139.999924 0.000000 0.000060 0.296220 4.335743 -3.335808 139.999924
17 139.999924 0.000000 0.000060 0.335725 3.894852 -2.986097 139.999924
[Rope4_Seg07]
16 139.999802 0.000000 0.000000 0.255504 1.892142 -0.503596 139.999802
17 139.999802 0.000000 0.000000 0.243564 1.671692 -0.370701 139.999802
[Rope4_Seg08]
16 139.999924 0.000000 0.000119 -1.343053 1.340236 -0.367715 139.999924
17 139.999924 0.000000 0.000119 -1.356277 1.175709 -0.264520 139.999924
[Rope4_Seg09]
16 90.185791 0.000060 0.000060 -135.617828 2.228885 0.850567 90.185791
17 90.185791 0.000060 0.000060 -135.617828 2.228885 0.850567 90.185791
[L_rear_hand01]
16 101.696655 -8.392275 -7.654577 -34.454281 -18.946800 151.655121 102.329041
17 101.696655 -8.392275 -7.654577 -34.454281 -18.946800 151.655121 102.329041
[L_rear_hand02]
16 102.726799 -1.568258 5.773216 83.407906 30.330435 172.796509 102.900848
17 102.726799 -1.568258 5.773216 83.407906 30.330435 172.796509 102.900848
[L_rear_hand03]
16 104.552910 9.721220 -10.420293 -161.379868 -16.473232 -150.512238 105.519653
17 104.552910 9.721220 -10.420293 -161.379868 -16.473232 -150.512238 105.519653
